<svg xmlns="http://www.w3.org/2000/svg" viewBox="0 0 100 100">
  <rect width="100" height="100" fill="#004482"/>
  <path fill="#FFF" d="M74.8 30.5c-.7-1.3-1.6-2.4-2.6-3.3-1-1-2.1-1.9-3.3-2.6-1.2-.7-2.6-1.1-4-1.2-1.4-.1-2.8 0-4.1.4-1.3.4-2.5 1-3.6 1.8-1.1.9-2 1.9-2.8 3.1-.9 1.1-1.5 2.4-1.8 3.8-.3 1.3-.4 2.7-.1 4 .3 1.3.8 2.6 1.7 3.8.9 1.1 2.1 2.2 3.4 3.1 1.3.9 2.7 1.6 4.3 2s3.2.6 4.8.4c1.6-.2 3.1-.7 4.5-1.5 1.4-.8 2.6-1.9 3.7-3.1 1-.9 1.9-2 2.6-3.3.7-1.2 1.1-2.6 1.2-4.1.1-1.4 0-2.8-.4-4.1zM50 25c13.8 0 25 11.2 25 25S63.8 75 50 75 25 63.8 25 50 36.2 25 50 25zm0 10c-8.3 0-15 6.7-15 15s6.7 15 15 15 15-6.7 15-15-6.7-15-15-15z"/>
</svg> 