<svg width="24" height="24" viewBox="0 0 24 24" fill="none" xmlns="http://www.w3.org/2000/svg">
  <path d="M12 2C6.48 2 2 6.48 2 12s4.48 10 10 10 10-4.48 10-10S17.52 2 12 2zm3.36 12.82c-.22.61-.83 1.05-1.57 1.05-.74 0-1.35-.44-1.57-1.05L12 12.36l-.82 2.46c-.22.61-.83 1.05-1.57 1.05-.74 0-1.35-.44-1.57-1.05L7.29 12l-.82-2.46c-.22-.61-.83-1.05-1.57-1.05-.74 0-1.35.44-1.57 1.05L2.59 12.36c-.22.61-.83 1.05-1.57 1.05-.74 0-1.35-.44-1.57-1.05L0 12.36l.82-2.46c.22-.61.83-1.05 1.57-1.05.74 0 1.35.44 1.57 1.05l.82 2.46L6.41 9.54c.22-.61.83-1.05 1.57-1.05.74 0 1.35.44 1.57 1.05l.82 2.46L10.71 9.54c.22-.61.83-1.05 1.57-1.05.74 0 1.35.44 1.57 1.05l.82 2.46L14.71 9.54c.22-.61.83-1.05 1.57-1.05.74 0 1.35.44 1.57 1.05l.82 2.46z" fill="#FFC107"/>
</svg> 